<?xml version="1.0" ?><!DOCTYPE svg  PUBLIC '-//W3C//DTD SVG 1.1//EN'  'http://www.w3.org/Graphics/SVG/1.1/DTD/svg11.dtd'><svg enable-background="new 0 0 75 75" height="75px" version="1.1" viewBox="0 0 75 75" width="75px" xml:space="preserve" xmlns="http://www.w3.org/2000/svg" xmlns:xlink="http://www.w3.org/1999/xlink"><g id="Layer_1"><g><g><g><g><g><path d="M22.093,31.791c-1.26-1.26-3.304-1.26-4.564,0l-2.076,2.078l-0.002-0.002l-4.566,4.564        c-1.26,1.262-3.305,1.262-4.564,0l5.574,5.574c1.26,1.262,3.305,1.262,4.564,0l2.075-2.074h0.002l4.565-4.566        c1.261-1.26,3.306-1.26,4.567,0L22.093,31.791z" fill="#F26606"/></g><g><path d="M31.913,26.555c-1.261-1.26-3.305-1.26-4.565,0.002l-2.076,2.074l-0.001-0.002l-3.17,3.17l5.567,5.566        l5.254-5.234c1.26-1.262,3.304-1.262,4.563-0.002L31.913,26.555z" fill="#1BC1A9"/></g><g><path d="M34.837,29.479l-2.924-2.924c-1.261-1.26-3.305-1.26-4.565,0.002l-1.877,1.877        c0.506,0.652,1.056,1.299,1.673,1.916c1.361,1.361,2.832,2.441,4.305,3.248l1.474-1.467c0.764-0.766,1.815-1.059,2.809-0.896        C35.476,30.652,35.183,30.064,34.837,29.479z" fill="#0CAFAF"/></g><g><path d="M14.176,45.702c-1.063,0-2.062-0.414-2.813-1.167l-5.57-5.57c-0.001-0.001-0.003-0.003-0.004-0.004        c-0.292-0.293-0.292-0.768,0-1.061c0.293-0.292,0.768-0.292,1.061,0l0,0c0.936,0.937,2.567,0.937,3.503,0l4.567-4.565        c0.016-0.016,0.031-0.03,0.047-0.044l2.03-2.032c1.504-1.502,4.124-1.502,5.625,0l5.575,5.574l0,0l0,0        c0.293,0.292,0.293,0.768,0,1.061c-0.293,0.293-0.768,0.292-1.061,0c-0.937-0.936-2.571-0.936-3.507,0l-6.643,6.641        C16.238,45.288,15.239,45.702,14.176,45.702z M9.051,40.103l3.373,3.373c0.937,0.938,2.568,0.937,3.503,0l6.643-6.641        c0.645-0.645,1.473-1.041,2.366-1.14l-3.374-3.374c-0.936-0.936-2.568-0.934-3.504,0l-2.076,2.078        c-0.016,0.015-0.032,0.03-0.048,0.044l-4.521,4.519C10.771,39.606,9.944,40.003,9.051,40.103z" fill="#093260"/></g><g><path d="M27.668,38.115c-0.192,0-0.384-0.073-0.53-0.22l-5.567-5.566c-0.141-0.141-0.22-0.332-0.22-0.53        s0.079-0.39,0.22-0.53l3.17-3.17c0.013-0.013,0.027-0.026,0.041-0.038l2.036-2.035c1.502-1.502,4.123-1.503,5.626-0.002        l5.572,5.575c0.293,0.293,0.293,0.768,0,1.061s-0.768,0.293-1.061,0c-0.935-0.935-2.567-0.935-3.502,0.001l-5.255,5.236        C28.051,38.042,27.859,38.115,27.668,38.115z M23.161,31.799l4.508,4.507l4.724-4.706c0.643-0.644,1.47-1.041,2.363-1.141        l-3.373-3.374c-0.936-0.935-2.569-0.935-3.504,0.002l-2.077,2.075c-0.013,0.013-0.027,0.025-0.041,0.038L23.161,31.799z" fill="#093260"/></g></g><g><g><path d="M52.907,31.791c1.26-1.26,3.303-1.26,4.564,0l2.077,2.076h0.001l4.567,4.564        c1.259,1.262,3.304,1.262,4.563,0l-5.573,5.574c-1.26,1.262-3.305,1.26-4.564,0l0.674,0.678l0,0l-7.317-7.318        c-1.261-1.26-3.306-1.26-4.566,0L52.907,31.791z" fill="#F26606"/></g><g><path d="M43.089,26.555c1.26-1.26,3.305-1.26,4.564,0l2.076,2.076v-0.002l3.17,3.17l-5.566,5.566l-5.253-5.236        c-1.262-1.26-3.306-1.26-4.565,0L43.089,26.555z" fill="#1BC1A9"/></g><g><path d="M40.164,29.479l2.925-2.924c1.26-1.26,3.305-1.26,4.564,0l1.877,1.879        c-0.507,0.654-1.056,1.299-1.673,1.916c-1.362,1.361-2.833,2.441-4.305,3.248l-1.473-1.469        c-0.766-0.766-1.816-1.059-2.81-0.895C39.524,30.652,39.817,30.066,40.164,29.479z" fill="#0CAFAF"/></g><g><path d="M60.826,45.701c-0.513,0-1.011-0.096-1.473-0.28c-0.231,0.043-0.485-0.026-0.667-0.208l-7.317-7.318        c-0.936-0.935-2.57-0.935-3.506,0c-0.293,0.292-0.768,0.292-1.061,0s-0.293-0.768,0-1.061l5.574-5.574        c0.751-0.751,1.75-1.165,2.812-1.165c1.062,0,2.061,0.414,2.812,1.164l6.646,6.641c0.936,0.939,2.567,0.938,3.502,0.001l0,0        c0.293-0.293,0.768-0.292,1.061,0c0.293,0.293,0.293,0.768,0,1.061c0,0,0,0,0,0l-5.573,5.574        C62.888,45.288,61.889,45.701,60.826,45.701z M59.026,43.432c0.016,0.014,0.032,0.028,0.047,0.043        c0.936,0.936,2.569,0.937,3.503,0l3.373-3.373c-0.893-0.1-1.719-0.497-2.363-1.142l-6.645-6.64        c-0.937-0.936-2.568-0.935-3.504,0l-3.374,3.374c0.894,0.099,1.721,0.495,2.366,1.139L59.026,43.432z" fill="#093260"/></g><g><path d="M47.333,38.115c-0.191,0-0.383-0.073-0.529-0.219l-5.253-5.236c-0.938-0.937-2.57-0.937-3.506-0.001        c-0.293,0.293-0.768,0.293-1.061,0s-0.293-0.768,0-1.061l5.574-5.574c1.502-1.502,4.123-1.502,5.625,0l5.246,5.244        c0.141,0.141,0.22,0.331,0.22,0.53c0,0.199-0.079,0.39-0.22,0.53l-5.566,5.566C47.717,38.042,47.525,38.115,47.333,38.115z         M40.245,30.459c0.893,0.1,1.72,0.495,2.365,1.139l4.722,4.707l4.507-4.506l-4.716-4.713c-0.936-0.937-2.568-0.936-3.504,0        L40.245,30.459z" fill="#093260"/></g></g></g><g><g><g><path d="M35.389,15.506c-4.69-4.688-10.704-6.277-13.435-3.547c-0.947,0.947-1.365,2.301-1.322,3.85        c2.908,0.08,6.528,1.809,9.587,4.869c3.06,3.059,4.786,6.676,4.868,9.586c1.55,0.043,2.9-0.373,3.85-1.322        C41.666,26.211,40.077,20.197,35.389,15.506z" fill="#EAB818"/></g><g><path d="M21.132,13.197c-0.351,0.766-0.527,1.641-0.5,2.611c2.908,0.08,6.528,1.809,9.587,4.869        c3.06,3.059,4.786,6.676,4.868,9.586c0.969,0.025,1.846-0.15,2.61-0.502c1.363-3.055-0.365-8.094-4.418-12.146        S24.188,11.834,21.132,13.197z" fill="#ED9015"/></g><g><g><path d="M22.654,11.408c0.078-0.049,0.161-0.096,0.243-0.141C22.815,11.312,22.732,11.359,22.654,11.408z" fill="#F26606"/></g><g><path d="M20.68,14.844c-0.028,0.26-0.042,0.525-0.04,0.799C20.639,15.369,20.651,15.104,20.68,14.844z" fill="#F26606"/></g><g><path d="M20.988,13.512c0.082-0.217,0.175-0.422,0.284-0.621C21.163,13.09,21.07,13.295,20.988,13.512z" fill="#F26606"/></g><g><path d="M21.415,12.646c0.15-0.234,0.318-0.457,0.514-0.658C21.734,12.191,21.565,12.412,21.415,12.646z" fill="#F26606"/></g><g><path d="M20.7,14.631c0.044-0.314,0.113-0.617,0.206-0.906C20.813,14.014,20.745,14.314,20.7,14.631z" fill="#F26606"/></g><g><path d="M23.519,10.982c0.07-0.025,0.139-0.059,0.211-0.082C23.657,10.924,23.589,10.957,23.519,10.982z" fill="#F26606"/></g><g><path d="M40.269,25.082c-0.004,0-0.007-0.002-0.013-0.002c0.004,0.055,0.005,0.111,0.005,0.166         C40.261,25.189,40.27,25.139,40.269,25.082z" fill="#F26606"/></g><g><path d="M25.814,10.639c0-0.004-0.001-0.008-0.001-0.012c-0.057-0.002-0.106,0.008-0.163,0.008         C25.703,10.635,25.759,10.637,25.814,10.639z" fill="#F26606"/></g><g><path d="M21.996,11.924c-0.01,0.008-0.021,0.014-0.03,0.023c-0.003,0.002-0.003,0.004-0.005,0.006         C21.971,11.943,21.984,11.934,21.996,11.924z" fill="#F26606"/></g><g><path d="M24.638,10.693c0.07-0.01,0.145-0.014,0.215-0.021C24.782,10.68,24.708,10.684,24.638,10.693z" fill="#F26606"/></g><g><path d="M40.201,26.258c0.012-0.07,0.013-0.145,0.021-0.217C40.214,26.113,40.211,26.188,40.201,26.258z" fill="#F26606"/></g><g><path d="M39.913,27.377c0.025-0.07,0.059-0.139,0.083-0.213C39.972,27.238,39.938,27.307,39.913,27.377z" fill="#F26606"/></g><g><path d="M38.941,28.936c0.003-0.004,0.004-0.004,0.006-0.006c0.009-0.01,0.015-0.021,0.024-0.031         C38.961,28.91,38.953,28.924,38.941,28.936z" fill="#F26606"/></g><g><path d="M39.487,28.24c0.05-0.078,0.097-0.16,0.141-0.244C39.582,28.078,39.537,28.162,39.487,28.24z" fill="#F26606"/></g><g><path d="M38.906,28.965c-0.202,0.197-0.425,0.363-0.659,0.514C38.481,29.328,38.705,29.162,38.906,28.965z" fill="#F26606"/></g><g><path d="M37.172,29.988c-0.29,0.092-0.592,0.162-0.907,0.205C36.58,30.15,36.882,30.08,37.172,29.988z" fill="#F26606"/></g><g><path d="M35.251,30.254c0.275,0.002,0.541-0.012,0.8-0.039C35.792,30.242,35.525,30.258,35.251,30.254z" fill="#F26606"/></g><g><path d="M38.004,29.621c-0.197,0.111-0.405,0.205-0.619,0.285C37.599,29.826,37.807,29.732,38.004,29.621z" fill="#F26606"/></g><g><path d="M30.219,20.678c-3.055-3.057-6.668-4.783-9.575-4.869c0.088,2.906,1.814,6.518,4.869,9.574         c3.055,3.055,6.668,4.781,9.573,4.867C35.002,27.344,33.274,23.73,30.219,20.678z" fill="#F26606"/></g><g><path d="M23.931,16.51c0.779,2.1,2.19,4.309,4.167,6.287c1.979,1.977,4.188,3.389,6.29,4.168         c-0.782-2.102-2.191-4.311-4.169-6.287C28.241,18.699,26.033,17.289,23.931,16.51z" fill="#DB4D07"/></g></g><g><path d="M35.302,31.017l-0.236-0.003c-0.397-0.011-0.717-0.331-0.729-0.729        c-0.08-2.811-1.861-6.289-4.649-9.077c-2.789-2.791-6.267-4.572-9.077-4.65c-0.398-0.011-0.718-0.331-0.729-0.729        c-0.051-1.82,0.482-3.342,1.542-4.401c1.018-1.018,2.457-1.555,4.161-1.555c3.274,0,7.137,1.907,10.334,5.102        c5.057,5.06,6.615,11.428,3.548,14.496C38.456,30.482,37.016,31.017,35.302,31.017z M21.397,15.11        c3.052,0.333,6.492,2.175,9.352,5.037c2.86,2.859,4.701,6.299,5.036,9.352c1.099-0.081,1.979-0.446,2.621-1.088        c2.391-2.392,0.766-8.059-3.548-12.375c-2.878-2.876-6.432-4.663-9.273-4.663c-1.298,0-2.371,0.386-3.101,1.116        C21.851,13.123,21.48,14.02,21.397,15.11z" fill="#093260"/></g><g><g><path d="M22.655,12.158c-0.25,0-0.494-0.125-0.636-0.353c-0.078-0.124-0.114-0.261-0.114-0.396         c0-0.25,0.125-0.495,0.353-0.637c0.09-0.057,0.186-0.111,0.28-0.163c0.362-0.199,0.819-0.067,1.018,0.297         c0.062,0.114,0.092,0.238,0.092,0.359c0,0.265-0.141,0.522-0.39,0.659c-0.069,0.038-0.14,0.078-0.206,0.119         C22.928,12.122,22.791,12.158,22.655,12.158z" fill="#093260"/></g><g><path d="M20.64,16.393c-0.412,0-0.747-0.333-0.75-0.745c0-0.001,0-0.002,0-0.002l0,0c0,0,0,0,0-0.001         c-0.002-0.302,0.013-0.595,0.044-0.882c0.045-0.412,0.419-0.708,0.827-0.665c0.385,0.042,0.669,0.367,0.669,0.746         c0,0.027-0.001,0.054-0.004,0.081c-0.025,0.233-0.037,0.47-0.036,0.715c0.001,0.414-0.333,0.75-0.746,0.753         C20.642,16.393,20.641,16.393,20.64,16.393z" fill="#093260"/></g><g><path d="M20.988,14.262c-0.088,0-0.178-0.016-0.266-0.048c-0.3-0.114-0.485-0.399-0.484-0.703         c0-0.087,0.016-0.177,0.048-0.264c0.095-0.25,0.202-0.486,0.329-0.716c0.199-0.363,0.656-0.496,1.018-0.296         c0.249,0.136,0.39,0.394,0.389,0.659c0,0.122-0.03,0.245-0.093,0.359c-0.092,0.168-0.17,0.342-0.24,0.526         C21.576,14.077,21.291,14.262,20.988,14.262z" fill="#093260"/></g><g><path d="M21.415,13.396c-0.139,0-0.279-0.038-0.405-0.119c-0.223-0.144-0.345-0.385-0.345-0.632         c0-0.139,0.039-0.279,0.119-0.404c0.192-0.299,0.391-0.552,0.607-0.775c0.288-0.297,0.761-0.304,1.059-0.018         c0.297,0.287,0.307,0.76,0.021,1.059c-0.153,0.16-0.292,0.338-0.424,0.545C21.903,13.275,21.661,13.396,21.415,13.396z" fill="#093260"/></g><g><path d="M20.701,15.381c-0.035,0-0.07-0.002-0.105-0.007c-0.41-0.058-0.696-0.437-0.638-0.847         c0.049-0.352,0.127-0.697,0.233-1.028c0-0.001,0.001-0.002,0.001-0.003c0.127-0.394,0.549-0.612,0.943-0.485         c0.318,0.103,0.521,0.397,0.521,0.714c0,0.076-0.011,0.153-0.036,0.229c-0.037,0.115-0.07,0.232-0.098,0.352         c-0.032,0.139-0.059,0.281-0.08,0.429c0,0,0,0.001,0,0.002C21.39,15.11,21.069,15.381,20.701,15.381z" fill="#093260"/></g><g><path d="M23.519,11.732c-0.307,0-0.595-0.19-0.706-0.495c-0.03-0.084-0.045-0.171-0.044-0.256         c0-0.307,0.19-0.594,0.495-0.705l0.255,0.706l-0.197-0.729c0.058-0.024,0.116-0.047,0.176-0.067         c0.394-0.129,0.817,0.088,0.945,0.482c0.025,0.077,0.037,0.155,0.037,0.232c0,0.316-0.202,0.61-0.519,0.713         c-0.011,0.004-0.177,0.07-0.188,0.074C23.689,11.718,23.603,11.732,23.519,11.732z" fill="#093260"/></g><g><path d="M40.261,25.996c-0.413,0-0.748-0.333-0.75-0.745c0-0.001,0-0.001,0-0.002s0-0.001,0-0.002         l-0.003-0.112c-0.015-0.208,0.057-0.413,0.199-0.565c0.167-0.181,0.41-0.267,0.667-0.229         c0.359,0.051,0.638,0.356,0.645,0.729c0,0.024-0.004,0.134-0.006,0.157c0,0.006-0.001,0.013-0.002,0.019c0,0,0,0,0,0.001         C41.011,25.66,40.675,25.996,40.261,25.996z" fill="#093260"/></g><g><path d="M25.813,11.389c-0.008,0-0.017,0-0.025,0l-0.138-0.003c-0.414,0-0.75-0.336-0.75-0.75         s0.336-0.75,0.75-0.75c0.057-0.005,0.101-0.008,0.148-0.008c0.414,0,0.765,0.336,0.765,0.75c0,0.204-0.082,0.404-0.229,0.545         C26.194,11.308,26.007,11.389,25.813,11.389z" fill="#093260"/></g><g><path d="M21.961,12.703c-0.192,0-0.384-0.073-0.531-0.22c-0.273-0.274-0.291-0.706-0.053-1         c0.019-0.023,0.038-0.045,0.059-0.066l0,0c0.004-0.004,0.01-0.009,0.015-0.015c0.016-0.015,0.033-0.03,0.051-0.044         c0.019-0.015,0.038-0.03,0.053-0.041c0.33-0.231,0.788-0.165,1.032,0.154c0.192,0.251,0.205,0.584,0.051,0.84l0,0         c0,0,0,0,0,0c-0.043,0.071-0.099,0.137-0.167,0.193c-0.001,0.001-0.001,0-0.001,0.001c-0.001,0.001-0.002,0.002-0.004,0.003         c-0.022,0.022-0.033,0.03-0.049,0.04C22.282,12.652,22.121,12.703,21.961,12.703z" fill="#093260"/></g><g><path d="M24.724,11.435c-0.374,0-0.732-0.268-0.784-0.643c-0.005-0.04-0.008-0.08-0.008-0.119         c0-0.362,0.233-0.671,0.604-0.723l0.166-0.018c0.412-0.038,0.814,0.26,0.854,0.669c0.003,0.029,0.004,0.058,0.004,0.085         c0,0.373-0.245,0.688-0.624,0.73c-0.006,0-0.1,0.009-0.105,0.01C24.794,11.432,24.759,11.435,24.724,11.435z" fill="#093260"/></g><g><path d="M40.202,27.008c-0.038,0-0.076-0.003-0.114-0.009c-0.405-0.062-0.686-0.438-0.629-0.844l0.016-0.164         c0.002-0.02,0.003-0.037,0.004-0.041c0.05-0.412,0.428-0.696,0.835-0.654c0.381,0.046,0.66,0.37,0.66,0.744         c0,0.03-0.002,0.061-0.005,0.091c-0.01,0.123-0.016,0.187-0.026,0.25C40.88,26.748,40.562,27.008,40.202,27.008z" fill="#093260"/></g><g><path d="M39.904,28.076c-0.082,0-0.164-0.014-0.244-0.045c-0.3-0.117-0.495-0.377-0.495-0.671         c0-0.078,0.014-0.158,0.042-0.238c0.004-0.011,0.044-0.113,0.049-0.124c0.129-0.393,0.567-0.643,0.96-0.513         c0.318,0.105,0.528,0.379,0.528,0.689c0,0.073-0.012,0.148-0.037,0.224c-0.02,0.06-0.043,0.118-0.066,0.174         C40.519,27.871,40.214,28.076,39.904,28.076z" fill="#093260"/></g><g><path d="M38.942,29.683c-0.168,0-0.336-0.056-0.475-0.17c-0.31-0.255-0.367-0.707-0.125-1.028         c0.009-0.012,0.019-0.024,0.029-0.037c0.015-0.019,0.035-0.043,0.048-0.057v0c0.008-0.009,0.015-0.017,0.022-0.024         c0.29-0.288,0.756-0.292,1.049-0.011c0.284,0.272,0.308,0.716,0.061,1.017c-0.016,0.021-0.033,0.042-0.047,0.057         c-0.015,0.017-0.031,0.033-0.048,0.049C39.313,29.614,39.128,29.683,38.942,29.683z" fill="#093260"/></g><g><path d="M39.487,28.99c-0.138,0-0.278-0.038-0.403-0.118c-0.224-0.143-0.347-0.386-0.347-0.633         c0-0.138,0.038-0.277,0.118-0.402c0.031-0.049,0.06-0.102,0.089-0.154c0.004-0.008,0.009-0.017,0.014-0.025         c0.001-0.003,0.003-0.006,0.005-0.009l0,0c0.209-0.334,0.656-0.476,1.006-0.288c0.361,0.195,0.513,0.619,0.323,0.983         c-0.053,0.102-0.11,0.202-0.171,0.297c0,0.001-0.001,0.002-0.002,0.003C39.977,28.868,39.734,28.99,39.487,28.99z" fill="#093260"/></g><g><path d="M38.248,30.229c-0.247,0-0.488-0.122-0.632-0.345c-0.08-0.125-0.119-0.266-0.119-0.404         c0-0.247,0.122-0.489,0.345-0.632c0.218-0.14,0.395-0.277,0.541-0.419c0.297-0.289,0.771-0.283,1.06,0.012         c0.29,0.296,0.285,0.77-0.011,1.06c-0.216,0.212-0.47,0.411-0.775,0.607c-0.001,0.001-0.002,0.001-0.003,0.002         C38.527,30.19,38.386,30.229,38.248,30.229z" fill="#093260"/></g><g><path d="M36.264,30.943c-0.369,0-0.691-0.272-0.742-0.649c-0.005-0.034-0.007-0.068-0.007-0.103         c0-0.369,0.273-0.69,0.649-0.742c0.26-0.035,0.523-0.095,0.782-0.177c0.398-0.126,0.817,0.094,0.941,0.488         c0.024,0.076,0.036,0.152,0.035,0.228c0,0.318-0.205,0.613-0.524,0.714c-0.34,0.108-0.688,0.187-1.032,0.233         C36.332,30.941,36.297,30.943,36.264,30.943z" fill="#093260"/></g><g><path d="M35.334,31.004c-0.003,0-0.091,0-0.094,0c-0.413-0.006-0.744-0.345-0.739-0.758         c0.004-0.412,0.339-0.742,0.75-0.742c0.003,0,0.007,0,0.011,0c0.272,0,0.492-0.012,0.707-0.035c0.001,0,0.002,0,0.004,0         c0.408-0.044,0.781,0.255,0.824,0.667c0.003,0.026,0.004,0.053,0.004,0.079c0,0.379-0.286,0.705-0.671,0.746         C35.872,30.988,35.606,31.004,35.334,31.004z" fill="#093260"/></g><g><path d="M37.385,30.656c-0.304,0-0.589-0.186-0.702-0.487c-0.033-0.086-0.048-0.175-0.048-0.262         c0-0.304,0.186-0.59,0.487-0.703c0.178-0.066,0.35-0.144,0.514-0.236c0.361-0.203,0.818-0.076,1.022,0.285         c0.065,0.116,0.097,0.243,0.097,0.367c0,0.262-0.137,0.517-0.381,0.655c-0.231,0.13-0.475,0.24-0.725,0.334         C37.561,30.641,37.472,30.656,37.385,30.656z" fill="#093260"/></g><g><path d="M35.086,31c-0.007,0-0.015,0-0.022,0c-3.223-0.095-6.992-1.997-10.082-5.086         c-3.089-3.091-4.991-6.86-5.088-10.082c-0.006-0.207,0.073-0.406,0.219-0.553c0.146-0.146,0.349-0.221,0.552-0.219         c3.225,0.095,6.995,1.998,10.083,5.088c3.092,3.089,4.994,6.857,5.086,10.081c0.006,0.206-0.073,0.406-0.219,0.552         C35.475,30.921,35.285,31,35.086,31z M21.467,16.631c0.371,2.638,2.066,5.71,4.576,8.221         c2.511,2.511,5.583,4.206,8.221,4.575c-0.368-2.638-2.063-5.709-4.576-8.219C27.178,18.696,24.106,17,21.467,16.631z" fill="#093260"/></g></g></g><g><g><path d="M39.612,15.506c4.69-4.688,10.704-6.277,13.436-3.547c0.947,0.947,1.363,2.301,1.321,3.85        c-2.91,0.082-6.527,1.809-9.586,4.869c-3.06,3.059-4.787,6.678-4.87,9.586c-1.55,0.043-2.899-0.375-3.848-1.322        C33.336,26.211,34.922,20.197,39.612,15.506z" fill="#EAB818"/></g><g><path d="M53.868,13.197c0.351,0.766,0.527,1.641,0.501,2.611c-2.91,0.082-6.527,1.809-9.586,4.869        c-3.06,3.059-4.787,6.678-4.87,9.586c-0.969,0.025-1.846-0.15-2.608-0.5c-1.365-3.059,0.364-8.096,4.418-12.148        C45.774,13.562,50.812,11.834,53.868,13.197z" fill="#ED9015"/></g><g><g><path d="M52.347,11.41c-0.079-0.051-0.162-0.1-0.244-0.145C52.185,11.312,52.268,11.357,52.347,11.41z" fill="#F26606"/></g><g><path d="M54.32,14.844c0.028,0.26,0.043,0.525,0.04,0.799C54.362,15.369,54.349,15.104,54.32,14.844z" fill="#F26606"/></g><g><path d="M54.012,13.512c-0.08-0.215-0.175-0.422-0.283-0.621C53.837,13.09,53.932,13.297,54.012,13.512z" fill="#F26606"/></g><g><path d="M53.585,12.648c-0.15-0.236-0.318-0.459-0.514-0.658C53.266,12.191,53.435,12.412,53.585,12.648z" fill="#F26606"/></g><g><path d="M54.301,14.631c-0.045-0.316-0.114-0.617-0.207-0.908C54.187,14.012,54.256,14.314,54.301,14.631z" fill="#F26606"/></g><g><path d="M51.481,10.982c-0.07-0.027-0.137-0.059-0.209-0.082C51.345,10.924,51.411,10.955,51.481,10.982z" fill="#F26606"/></g><g><path d="M34.731,25.082c0.004,0,0.008-0.002,0.013-0.002c-0.002,0.055-0.003,0.111-0.003,0.164         C34.741,25.189,34.729,25.139,34.731,25.082z" fill="#F26606"/></g><g><path d="M49.187,10.637c0-0.002,0-0.006,0-0.01c0.058-0.004,0.107,0.008,0.164,0.008         C49.295,10.635,49.241,10.635,49.187,10.637z" fill="#F26606"/></g><g><path d="M53.005,11.924c0.009,0.008,0.021,0.014,0.031,0.023c0.001,0.002,0.002,0.006,0.004,0.006         C53.029,11.943,53.016,11.934,53.005,11.924z" fill="#F26606"/></g><g><path d="M50.363,10.693c-0.07-0.01-0.144-0.014-0.216-0.021C50.22,10.68,50.293,10.684,50.363,10.693z" fill="#F26606"/></g><g><path d="M34.8,26.258c-0.012-0.07-0.014-0.145-0.021-0.217C34.786,26.113,34.791,26.188,34.8,26.258z" fill="#F26606"/></g><g><path d="M35.087,27.377c-0.025-0.07-0.058-0.139-0.082-0.213C35.029,27.238,35.062,27.307,35.087,27.377z" fill="#F26606"/></g><g><path d="M36.06,28.936c-0.003-0.002-0.004-0.004-0.007-0.006c-0.009-0.01-0.014-0.023-0.022-0.031         C36.039,28.91,36.048,28.924,36.06,28.936z" fill="#F26606"/></g><g><path d="M35.515,28.24c-0.052-0.078-0.098-0.16-0.144-0.244C35.417,28.08,35.464,28.162,35.515,28.24z" fill="#F26606"/></g><g><path d="M36.095,28.965c0.201,0.197,0.424,0.363,0.659,0.516C36.519,29.328,36.296,29.162,36.095,28.965z" fill="#F26606"/></g><g><path d="M37.83,29.988c0.288,0.092,0.59,0.162,0.905,0.207C38.42,30.15,38.118,30.08,37.83,29.988z" fill="#F26606"/></g><g><path d="M39.749,30.254c-0.275,0.002-0.54-0.012-0.8-0.039C39.209,30.242,39.475,30.256,39.749,30.254z" fill="#F26606"/></g><g><path d="M36.997,29.621c0.196,0.111,0.404,0.205,0.619,0.285C37.401,29.826,37.193,29.732,36.997,29.621z" fill="#F26606"/></g><g><path d="M44.783,20.678c3.054-3.057,6.667-4.783,9.574-4.869c-0.087,2.906-1.815,6.518-4.87,9.572         c-3.055,3.057-6.668,4.783-9.573,4.869C40,27.344,41.727,23.732,44.783,20.678z" fill="#F26606"/></g><g><path d="M51.07,16.51c-0.778,2.1-2.191,4.311-4.167,6.287c-1.979,1.977-4.188,3.387-6.289,4.168         c0.781-2.102,2.19-4.311,4.169-6.287C46.76,18.699,48.968,17.289,51.07,16.51z" fill="#DB4D07"/></g></g><g><path d="M39.698,31.017c-1.712,0-3.151-0.534-4.163-1.544c-3.069-3.07-1.511-9.438,3.547-14.497        c3.197-3.195,7.06-5.102,10.334-5.102c1.705,0,3.144,0.538,4.162,1.555c1.057,1.057,1.59,2.579,1.541,4.4        c-0.011,0.398-0.331,0.718-0.729,0.729c-2.812,0.08-6.29,1.861-9.077,4.65c-2.789,2.788-4.57,6.266-4.651,9.077        c-0.011,0.397-0.331,0.717-0.729,0.728L39.698,31.017z M49.417,11.374c-2.842,0-6.396,1.787-9.274,4.663        c-4.314,4.315-5.938,9.982-3.547,12.375c0.633,0.632,1.532,1.003,2.62,1.087c0.336-3.052,2.178-6.492,5.038-9.351        c2.858-2.86,6.298-4.702,9.351-5.037c-0.083-1.092-0.454-1.989-1.086-2.622C51.787,11.759,50.715,11.374,49.417,11.374z" fill="#093260"/></g><g><g><path d="M52.346,12.16c-0.139,0-0.279-0.039-0.405-0.119l-0.159-0.095c-0.002-0.001-0.005-0.003-0.008-0.004         l-0.033-0.019l0-0.001c-0.33-0.214-0.464-0.661-0.271-1.007c0.202-0.36,0.63-0.503,0.991-0.307l0.012,0.007v0v0l0.111,0.063         c0.005,0.003,0.011,0.006,0.016,0.009c0.017,0.01,0.034,0.02,0.05,0.03c0.273,0.112,0.465,0.381,0.465,0.694         c0,0.414-0.336,0.75-0.75,0.75C52.359,12.16,52.354,12.16,52.346,12.16z" fill="#093260"/></g><g><path d="M54.36,16.393c-0.002,0-0.004,0-0.007,0c-0.414-0.004-0.746-0.342-0.743-0.755         c0.002-0.244-0.01-0.48-0.036-0.712c-0.003-0.027-0.004-0.054-0.004-0.081c0-0.378,0.284-0.704,0.669-0.746         c0.41-0.042,0.782,0.252,0.827,0.665c0.031,0.289,0.048,0.584,0.044,0.888C55.106,16.062,54.771,16.393,54.36,16.393z" fill="#093260"/></g><g><path d="M54.012,14.262c-0.304,0-0.59-0.186-0.703-0.488c-0.068-0.181-0.148-0.356-0.239-0.524         c-0.062-0.114-0.091-0.236-0.091-0.357c0-0.266,0.142-0.523,0.392-0.66c0.364-0.198,0.82-0.063,1.017,0.3         c0.125,0.23,0.235,0.469,0.327,0.718c0.032,0.086,0.047,0.175,0.047,0.262c0,0.304-0.187,0.59-0.488,0.703         C54.188,14.247,54.099,14.262,54.012,14.262z" fill="#093260"/></g><g><path d="M53.585,13.398c-0.248,0-0.49-0.123-0.633-0.347c-0.131-0.207-0.269-0.383-0.42-0.54         c-0.287-0.297-0.28-0.771,0.017-1.059c0.296-0.288,0.769-0.283,1.059,0.013c0.219,0.223,0.418,0.479,0.611,0.78         c0.08,0.125,0.117,0.265,0.117,0.402c0,0.248-0.123,0.49-0.347,0.633C53.863,13.361,53.724,13.398,53.585,13.398z" fill="#093260"/></g><g><path d="M54.3,15.381c-0.368,0-0.688-0.27-0.742-0.645c-0.021-0.146-0.047-0.29-0.081-0.43         c-0.028-0.119-0.06-0.236-0.098-0.353c0,0-0.001-0.001,0-0.002c-0.126-0.395,0.092-0.816,0.486-0.942         c0.396-0.126,0.816,0.091,0.943,0.485c0.088,0.274,0.158,0.561,0.208,0.854c0.036,0.087,0.055,0.183,0.055,0.283         c0,0.417-0.318,0.728-0.757,0.75C54.309,15.381,54.304,15.381,54.3,15.381z" fill="#093260"/></g><g><path d="M51.467,11.73c-0.084,0-0.171-0.016-0.257-0.049c-0.005-0.002-0.084-0.034-0.089-0.037         c-0.325-0.105-0.555-0.422-0.555-0.75c0-0.07,0.011-0.141,0.033-0.21c0.128-0.394,0.512-0.626,0.905-0.498         c0.066,0.021,0.13,0.047,0.193,0.073c0.296,0.123,0.493,0.423,0.494,0.729c0,0.087-0.016,0.174-0.05,0.258         C52.022,11.543,51.758,11.73,51.467,11.73z" fill="#093260"/></g><g><path d="M34.741,25.994c-0.41,0-0.743-0.329-0.75-0.737c-0.002-0.04-0.01-0.174-0.009-0.201         c0.013-0.369,0.291-0.668,0.646-0.717c0.251-0.033,0.489,0.047,0.655,0.22c0.142,0.146,0.217,0.344,0.21,0.548l-0.002,0.137         C35.491,25.658,35.155,25.994,34.741,25.994z" fill="#093260"/></g><g><path d="M49.187,11.387c-0.194,0-0.381-0.075-0.521-0.21c-0.147-0.141-0.229-0.336-0.229-0.54v-0.01         c0-0.395,0.306-0.722,0.699-0.748c0.04-0.003,0.174,0.001,0.214,0.005c0.004,0,0.007,0,0.011,0.001         c0.409,0.006,0.739,0.339,0.739,0.75c0,0.412-0.332,0.746-0.743,0.75l0,0c-0.001,0-0.003,0-0.003,0c-0.002,0-0.002,0-0.004,0         l-0.137,0.001C49.205,11.387,49.195,11.387,49.187,11.387z" fill="#093260"/></g><g><path d="M53.083,12.72c-0.183,0-0.367-0.065-0.515-0.184c-0.079-0.063-0.145-0.143-0.193-0.234         c0,0,0-0.001-0.001-0.001c-0.009-0.018-0.018-0.036-0.026-0.054c-0.002-0.005-0.004-0.011-0.006-0.016l0,0         c-0.123-0.306-0.032-0.661,0.231-0.869c0.284-0.225,0.688-0.214,0.96,0.026c0.089,0.079,0.157,0.175,0.2,0.281         c0.167,0.319,0.068,0.68-0.215,0.904C53.392,12.673,53.238,12.72,53.083,12.72z" fill="#093260"/></g><g><path d="M50.364,11.443c-0.034,0-0.069-0.002-0.104-0.007l-0.091-0.009c-0.005,0-0.097-0.009-0.102-0.01         c-0.384-0.042-0.669-0.367-0.669-0.745c0-0.027,0.001-0.054,0.004-0.082c0.044-0.412,0.41-0.71,0.826-0.665l0.238,0.024         c0.375,0.052,0.646,0.373,0.647,0.741c0,0.035-0.002,0.07-0.007,0.105C51.054,11.172,50.733,11.443,50.364,11.443z" fill="#093260"/></g><g><path d="M34.82,27.008c-0.208,0-0.397-0.084-0.534-0.221c-0.116-0.099-0.197-0.236-0.226-0.405         c-0.011-0.066-0.017-0.133-0.022-0.201c0-0.008-0.001-0.016-0.001-0.023c-0.001-0.021-0.002-0.041-0.002-0.061         c0-0.226,0.1-0.428,0.257-0.565c0.114-0.107,0.26-0.18,0.423-0.195c0.406-0.037,0.767,0.219,0.811,0.627l0,0c0,0,0,0,0,0         c0,0,0,0,0,0.001c0,0.006,0.002,0.022,0.004,0.041c0,0.003,0,0.006,0.001,0.009c0.026,0.077,0.041,0.158,0.041,0.244         C35.57,26.672,35.234,27.008,34.82,27.008z" fill="#093260"/></g><g><path d="M35.087,28.127c-0.307,0-0.595-0.19-0.706-0.495l0.706-0.255l-0.73,0.193         c-0.022-0.056-0.045-0.113-0.064-0.172c-0.025-0.078-0.038-0.156-0.038-0.234c0-0.315,0.2-0.609,0.516-0.713         c0.393-0.128,0.817,0.084,0.947,0.478c0.004,0.009,0.072,0.183,0.075,0.192c0.03,0.084,0.045,0.171,0.044,0.256         c0,0.307-0.19,0.594-0.495,0.705C35.257,28.113,35.171,28.127,35.087,28.127z" fill="#093260"/></g><g><path d="M36.102,29.697c-0.16,0-0.321-0.046-0.458-0.137c-0.026-0.018-0.052-0.038-0.077-0.059         c-0.025-0.022-0.05-0.045-0.072-0.07c-0.02-0.021-0.042-0.05-0.062-0.078c-0.002-0.003-0.004-0.006-0.005-0.007         c-0.224-0.31-0.181-0.743,0.103-1c0.276-0.249,0.688-0.262,0.974-0.028c0.106,0.073,0.193,0.174,0.25,0.292         c0.154,0.259,0.117,0.583-0.087,0.833C36.527,29.613,36.316,29.697,36.102,29.697z" fill="#093260"/></g><g><path d="M35.515,28.99c-0.243,0-0.481-0.118-0.625-0.336c-0.063-0.096-0.121-0.196-0.177-0.298         c-0.062-0.114-0.092-0.238-0.092-0.359c0-0.266,0.141-0.522,0.39-0.659c0.363-0.199,0.819-0.065,1.018,0.298         c0.016,0.029,0.032,0.058,0.048,0.086c0.128,0.134,0.208,0.317,0.208,0.518c0,0.414-0.336,0.75-0.75,0.75         C35.527,28.989,35.521,28.99,35.515,28.99z" fill="#093260"/></g><g><path d="M36.753,30.23c-0.14,0-0.281-0.039-0.407-0.121c-0.311-0.201-0.558-0.395-0.776-0.609         c-0.15-0.147-0.225-0.341-0.225-0.535c0-0.189,0.071-0.379,0.214-0.525c0.29-0.296,0.765-0.3,1.061-0.011         c0.146,0.143,0.317,0.276,0.542,0.422c0.222,0.144,0.343,0.385,0.342,0.631c0,0.139-0.039,0.28-0.121,0.406         C37.24,30.11,36.999,30.23,36.753,30.23z" fill="#093260"/></g><g><path d="M38.736,30.945c-0.035,0-0.071-0.002-0.107-0.007c-0.348-0.05-0.693-0.129-1.027-0.235         c-0.319-0.102-0.523-0.397-0.522-0.715c0-0.075,0.011-0.152,0.035-0.227c0.126-0.395,0.546-0.613,0.942-0.487         c0.254,0.082,0.518,0.142,0.784,0.179c0.374,0.053,0.644,0.374,0.644,0.741c0,0.035-0.002,0.071-0.007,0.107         C39.424,30.675,39.104,30.945,38.736,30.945z" fill="#093260"/></g><g><path d="M39.697,31.004L39.697,31.004L39.697,31.004c-0.284,0-0.558-0.015-0.827-0.043         c-0.385-0.041-0.672-0.367-0.671-0.746c0-0.026,0.001-0.052,0.004-0.079c0.044-0.412,0.415-0.703,0.825-0.667         c0.009,0.001,0.018,0.002,0.027,0.003c0.209,0.021,0.423,0.032,0.643,0.032l0,0v0.15v-0.15l0,0l0,0         c0.016,0,0.031,0,0.046,0.001v-0.001v0v0c0.002,0,0.004,0,0.005,0c0.412,0,0.747,0.332,0.75,0.745         c0.003,0.414-0.331,0.752-0.745,0.755v0v0v-0.002C39.735,31.003,39.716,31.004,39.697,31.004z" fill="#093260"/></g><g><path d="M37.616,30.656c-0.087,0-0.176-0.015-0.262-0.047c-0.252-0.094-0.497-0.205-0.728-0.335         c-0.243-0.138-0.38-0.392-0.38-0.653c0-0.125,0.031-0.252,0.098-0.369c0.205-0.36,0.662-0.486,1.022-0.282         c0.162,0.092,0.333,0.168,0.511,0.235c0.302,0.112,0.488,0.398,0.488,0.703c0,0.087-0.015,0.175-0.047,0.262         C38.207,30.47,37.92,30.656,37.616,30.656z" fill="#093260"/></g><g><path d="M39.914,31c-0.199,0-0.39-0.079-0.53-0.22c-0.146-0.146-0.226-0.346-0.219-0.552         c0.095-3.223,1.998-6.992,5.088-10.081c3.088-3.091,6.857-4.993,10.083-5.088c0.208-0.001,0.407,0.073,0.552,0.219         c0.146,0.146,0.226,0.346,0.219,0.553c-0.096,3.221-1.999,6.99-5.089,10.08C46.929,29.002,43.16,30.904,39.936,31         C39.929,31,39.921,31,39.914,31z M53.535,16.631c-2.64,0.369-5.712,2.065-8.221,4.577c-2.512,2.51-4.208,5.582-4.577,8.219         c2.639-0.369,5.71-2.065,8.22-4.577C51.468,22.339,53.164,19.268,53.535,16.631z" fill="#093260"/></g></g></g></g><g><path d="M41.479,28.152c0,2.199-1.782,3.979-3.979,3.979l0,0c-2.197,0.002-3.978-1.779-3.978-3.979v-12.01      c0-2.195,1.78-3.977,3.978-3.977l0,0c2.197,0,3.979,1.781,3.978,3.979L41.479,28.152z" fill="#EAB818"/></g><g><path d="M37.5,16.275c-2.197-0.002-3.978,1.779-3.978,3.977v7.9c0,2.199,1.78,3.98,3.978,3.979      c2.197,0,3.979-1.779,3.979-3.979l-0.002-7.9C41.479,18.055,39.697,16.273,37.5,16.275z" fill="#ED9015"/></g><g><path d="M37.5,32.881h-0.003c-2.605,0-4.724-2.121-4.724-4.729v-12.01c0-2.606,2.121-4.727,4.728-4.727      c1.263,0,2.451,0.492,3.344,1.385c0.894,0.894,1.385,2.081,1.384,3.344l0.002,12.007C42.229,30.76,40.108,32.881,37.5,32.881z       M37.5,12.916c-1.78,0-3.228,1.447-3.228,3.227v12.01c0,1.78,1.446,3.229,3.224,3.229v0.75l0.003-0.75      c1.781,0,3.23-1.448,3.23-3.229l-0.002-12.008c0.001-0.863-0.334-1.673-0.944-2.283C39.173,13.252,38.362,12.916,37.5,12.916z" fill="#093260"/></g><g><path d="M41.479,22.258c-0.414,0-0.75-0.336-0.75-0.75c0-1.78-1.449-3.229-3.229-3.229      c-1.78,0-3.228,1.448-3.228,3.229c0,0.414-0.336,0.75-0.75,0.75s-0.75-0.336-0.75-0.75c0-2.607,2.121-4.729,4.728-4.729      c2.608,0,4.729,2.121,4.729,4.729C42.229,21.922,41.894,22.258,41.479,22.258z" fill="#093260"/></g><g><path d="M41.479,29.008c-0.414,0-0.75-0.335-0.75-0.75c-0.001-1.779-1.45-3.227-3.229-3.227      c-1.778,0-3.226,1.448-3.228,3.227c0,0.414-0.336,0.75-0.75,0.75h0c-0.415,0-0.75-0.336-0.75-0.75      c0.002-2.606,2.123-4.726,4.728-4.726c2.605,0,4.727,2.12,4.729,4.726C42.23,28.671,41.895,29.007,41.479,29.008L41.479,29.008z      " fill="#093260"/></g></g><g><g><rect fill="#E83862" height="10.965" width="52.887" x="11.057" y="23.215"/></g><g><rect fill="#BC2A54" height="7.127" width="52.887" x="11.057" y="27.053"/></g><g><rect fill="#EAB818" height="10.965" width="13.068" x="30.966" y="23.215"/></g><g><rect fill="#ED9015" height="7.215" width="13.068" x="30.966" y="26.965"/></g><g><path d="M44.034,34.93H30.966c-0.414,0-0.75-0.336-0.75-0.75V23.215c0-0.414,0.336-0.75,0.75-0.75h13.068      c0.414,0,0.75,0.336,0.75,0.75V34.18C44.784,34.594,44.448,34.93,44.034,34.93z M31.716,33.43h11.568v-9.465H31.716V33.43z" fill="#093260"/></g><g><path d="M63.943,34.93H11.057c-0.414,0-0.75-0.336-0.75-0.75V23.215c0-0.414,0.336-0.75,0.75-0.75h52.887      c0.414,0,0.75,0.336,0.75,0.75V34.18C64.693,34.594,64.357,34.93,63.943,34.93z M11.807,33.43h51.387v-9.465H11.807V33.43z" fill="#093260"/></g></g><g><g><rect fill="#BC2A54" height="30.197" width="42.682" x="16.159" y="34.18"/></g><g><polygon fill="#AA1F4D" points="16.159,34.18 58.841,64.377 58.841,34.18     "/></g><g><path d="M58.841,65.127H16.159c-0.414,0-0.75-0.336-0.75-0.75V34.18c0-0.414,0.336-0.75,0.75-0.75h42.682      c0.414,0,0.75,0.336,0.75,0.75v30.197C59.591,64.791,59.255,65.127,58.841,65.127z M16.909,63.627h41.182V34.93H16.909V63.627z" fill="#093260"/></g></g><g><g><circle cx="23.5" cy="40.674" fill="#E83862" r="2.151"/></g><g><circle cx="32.833" cy="40.674" fill="#E83862" r="2.151"/></g><g><circle cx="42.167" cy="40.674" fill="#E83862" r="2.151"/></g><g><circle cx="51.5" cy="40.674" fill="#E83862" r="2.151"/></g></g><g><g><circle cx="28.167" cy="48.561" fill="#E83862" r="2.151"/></g><g><circle cx="37.5" cy="48.561" fill="#E83862" r="2.151"/></g><g><circle cx="46.833" cy="48.561" fill="#E83862" r="2.151"/></g></g><g><g><circle cx="23.5" cy="56.447" fill="#E83862" r="2.151"/></g><g><circle cx="32.833" cy="56.447" fill="#E83862" r="2.151"/></g><g><circle cx="42.167" cy="56.447" fill="#E83862" r="2.151"/></g><g><circle cx="51.5" cy="56.447" fill="#E83862" r="2.151"/></g></g><g><rect fill="#EAB818" height="30.197" width="8.166" x="33.417" y="34.18"/></g><g><polygon fill="#F26606" points="41.583,52.166 41.583,34.18 33.417,34.18 33.417,46.389    "/></g><g><path d="M41.583,65.127h-8.166c-0.414,0-0.75-0.336-0.75-0.75V34.18c0-0.414,0.336-0.75,0.75-0.75h8.166     c0.414,0,0.75,0.336,0.75,0.75v30.197C42.333,64.791,41.997,65.127,41.583,65.127z M34.167,63.627h6.666V34.93h-6.666V63.627z" fill="#093260"/></g></g></g></svg>