<?xml version="1.0" ?><svg id="Layer_2" style="enable-background:new 0 0 32 32;" version="1.1" viewBox="0 0 32 32" xml:space="preserve" xmlns="http://www.w3.org/2000/svg" xmlns:xlink="http://www.w3.org/1999/xlink"><g><path d="M16,0.5C7.45001,0.5,0.5,7.45001,0.5,16S7.45001,31.5,16,31.5S31.5,24.54999,31.5,16S24.54999,0.5,16,0.5z M14.5,23.66998   V12.59998c0-0.83002,0.66998-1.5,1.5-1.5s1.5,0.66998,1.5,1.5v11.07001c0,0.83002-0.66998,1.5-1.5,1.5S14.5,24.5,14.5,23.66998z    M16,9.82996c-0.83002,0-1.5-0.66998-1.5-1.5c0-0.82996,0.66998-1.5,1.5-1.5s1.5,0.67004,1.5,1.5   C17.5,9.14996,16.83002,9.82996,16,9.82996z"/></g></svg>